<?xml version="1.0" encoding="UTF-8"?>
<svg id="Layer_2" data-name="Layer 2" xmlns="http://www.w3.org/2000/svg" viewBox="0 0 443.28 443.28">
  <defs>
    <style>
      .cls-1 {
        fill: #13375a;
      }
    </style>
  </defs>
  <g id="Layer_1-2" data-name="Layer 1">
    <g>
      <path class="cls-1" d="M238.47,183.26c7.95,4.83,15.36,9.79,22.71,15.31,12.77,9.59,22.49,19.54,26.44,35.45,2.84,11.46,3.74,24.28,3.24,36.07-.62,14.7-3.24,28.38-13.58,39.47-7.94,8.51-18.53,13.91-30.11,15.6-.33-1.79-.32-3.32-.4-5.28l-27.75-.17-.17-9.94c-.15-8.71-6.36-16.21-15.05-17.38-7.27-.98-13.99,1.85-18.58,7.33-3.97-1.61-7.98-.88-11.05,1.63-3.14-4.26-4.28-8.96-6.26-14.11-1.83,4.13-3,7.93-5.06,11.71-5.34,9.84-13.73,17.66-23.98,22.32-9.65,4.38-20.04,6-30.62,5.98-22.21-.04-43.65-7.86-54.55-28.3-5.99-11.24-6.96-20.71-7.5-33.23l-.71-16.58-.07-78.31.45-8.95.96-13.9c.55-8.03,2.83-15.69,6.77-22.69,4.56-8.09,11.15-14.41,19.25-18.88,6.63-3.66,13.72-5.69,21.27-6.87,13.96-2.18,28.48-1.43,41.82,3.23,11.3,3.94,20.51,11.43,26.63,21.57,2.31,3.82,3.58,7.82,5.56,12.12,2.79-9.91,7.71-18.36,15.52-24.63,8.22-6.6,18.06-10.44,28.45-12.15,9.3-1.53,18.36-1.69,27.63-.52,13.13,1.65,24.42,5.6,34.62,14.62.71-6.12.05-9.53.48-15.41h123.07s0,47.32,0,47.32l-34.13.17v179.77s-54.63,0-54.63,0v-179.83s-19.29-.03-19.29-.03l.75,15.16.17,9.6-25.43.05h-28.39s-.14-14.01-.14-14.01c-.06-6.05.56-15.16-5.35-17.84-2.97-1.35-6.53-1.21-8.93.91-2.1,1.86-3.08,4.49-3.39,7.28-.65,5.86-.71,11.84.5,17.57.9,4.3,3.25,7.74,6.59,10.44,3.86,3.13,7.85,5.67,12.22,8.32ZM108.83,286.04c7.84-.18,8.15-8.09,8.34-14.26l.33-10.61-.08-96.57-.3-10.84c-.16-5.89-.07-14.57-7.68-15.68-3.51-.52-6.58.92-8.22,4.17-1.51,2.98-1.91,6.36-1.96,9.82l-.3,20.19v86.98s.32,10.68.32,10.68c.11,3.7.34,7.45,1.47,10.89,1.2,3.65,4.34,5.31,8.07,5.23ZM234.06,283.98c1.98-1.7,2.84-4.26,3.1-6.74.79-7.78.68-15.52-.38-23.24-.65-4.75-2.01-9.06-5.3-12.55-3.45-3.67-7.42-6.31-11.67-9.03-10.78-6.68-21.24-13.67-31.13-21.59-7.37-5.9-12.65-12.73-17.67-21.38l-.35,39.6.2,14.21,47.97.09.12,30.32c.01,3.37.88,6.4,2.37,9.36,3.15,3.55,8.99,4.18,12.74.96Z"/>
      <path class="cls-1" d="M183.87,312.34c0-1.9.07-3.49-.12-5.24-.16-1.51-1.61-2.41-2.91-2.39-4.47.06-3.46,6.96-3.55,9.99l-7.74,7.93,40.91.03.04,3-48.3-.07,12-12.07c0-2.3.06-4.49.3-6.68.63-2.5,2.22-4.18,4.45-4.85,2.47-.74,4.81,0,6.89,1.95,3.79-6.5,10.57-9.94,17.84-8.68,7.3,1.26,12.29,7.2,12.38,14.58l.15,12.92h27.68c.1.99.11,1.88.01,2.89l-30.83.06-.08-15.44c-.04-7.6-6.49-13.11-14.11-12.08-6.87.93-11.8,6.92-12.02,13.99l-3,.17Z"/>
    </g>
  </g>
</svg>